<svg xmlns="http://www.w3.org/2000/svg" width="165" height="150" viewBox="0 0 165 150" fill="none">
<g transform="translate(118,2) scale(1.0)">
<path d="M 3 0 H 19.799999999999997 Q 44 0 44 24.200000000000003 V 41 Q 44 44 41 44 H 3 Q 0 44 0 41 V 3 Q 0 0 3 0 Z" fill="#fbc618"/>
<path d="M 0 38 H 44 V 41 Q 44 44 41 44 H 3 Q 0 44 0 41 Z" fill="#c89e13" opacity="0.85"/>
</g>
<g transform="translate(48,8) scale(0.85)">
<rect x="8.4" y="0" width="13.2" height="13" rx="2.5" fill="#8212da"/>
<rect x="38.4" y="0" width="13.2" height="13" rx="2.5" fill="#8212da"/>
<rect x="0" y="9" width="60" height="26" rx="3" fill="#8212da"/>
<rect x="0" y="29" width="60" height="6" rx="3" fill="#650eaa"/>
</g>
<g transform="translate(14,44) scale(0.85)">
<rect x="8.4" y="0" width="13.2" height="13" rx="2.5" fill="#ef4665"/>
<rect x="0" y="9" width="30" height="26" rx="3" fill="#ef4665"/>
<rect x="0" y="29" width="30" height="6" rx="3" fill="#ba364e"/>
</g>
<g transform="translate(78,62) scale(0.9)">
<rect x="8.4" y="0" width="13.2" height="13" rx="2.5" fill="#72bb4f"/>
<rect x="38.4" y="0" width="13.2" height="13" rx="2.5" fill="#72bb4f"/>
<rect x="0" y="9" width="60" height="26" rx="3" fill="#72bb4f"/>
<rect x="0" y="29" width="60" height="6" rx="3" fill="#58913d"/>
</g>
<g transform="translate(30,96) scale(0.85)">
<rect x="8.4" y="0" width="13.2" height="13" rx="2.5" fill="#fbc618"/>
<rect x="38.4" y="0" width="13.2" height="13" rx="2.5" fill="#fbc618"/>
<rect x="0" y="9" width="60" height="26" rx="3" fill="#fbc618"/>
<rect x="0" y="29" width="60" height="6" rx="3" fill="#c39a12"/>
</g>
</svg>
