<svg xmlns="http://www.w3.org/2000/svg" width="150" height="140" viewBox="0 0 150 140" fill="none">
<g transform="translate(60,8)">
<ellipse cx="13.0" cy="8" rx="8.5" ry="6" fill="#f19640" stroke="#1a1a1a" stroke-width="2"/>
<ellipse cx="13.0" cy="6.5" rx="6" ry="3.6" fill="#f19640" opacity="0"/>
<ellipse cx="13.0" cy="6.5" rx="5" ry="2.6" fill="#ffffff" opacity="0.30"/>
<rect x="0" y="8" width="26" height="30" rx="5" fill="#f19640" stroke="#1a1a1a" stroke-width="2"/>
<rect x="0" y="31" width="26" height="7" fill="#9f622a"/>
<rect x="0" y="8" width="26" height="30" rx="5" fill="none" stroke="#1a1a1a" stroke-width="2"/>
<rect x="4" y="11" width="18" height="4" rx="2" fill="#ffffff" opacity="0.20"/>
</g>
<g transform="translate(18,30)">
<ellipse cx="13.0" cy="8" rx="8.5" ry="6" fill="#149ada" stroke="#1a1a1a" stroke-width="2"/>
<ellipse cx="13.0" cy="6.5" rx="6" ry="3.6" fill="#149ada" opacity="0"/>
<ellipse cx="13.0" cy="6.5" rx="5" ry="2.6" fill="#ffffff" opacity="0.30"/>
<ellipse cx="39.0" cy="8" rx="8.5" ry="6" fill="#149ada" stroke="#1a1a1a" stroke-width="2"/>
<ellipse cx="39.0" cy="6.5" rx="6" ry="3.6" fill="#149ada" opacity="0"/>
<ellipse cx="39.0" cy="6.5" rx="5" ry="2.6" fill="#ffffff" opacity="0.30"/>
<rect x="0" y="8" width="52" height="30" rx="5" fill="#149ada" stroke="#1a1a1a" stroke-width="2"/>
<rect x="0" y="31" width="52" height="7" fill="#0d658f"/>
<rect x="0" y="8" width="52" height="30" rx="5" fill="none" stroke="#1a1a1a" stroke-width="2"/>
<rect x="4" y="11" width="44" height="4" rx="2" fill="#ffffff" opacity="0.20"/>
</g>
<g transform="translate(64,52)">
<ellipse cx="13.0" cy="8" rx="8.5" ry="6" fill="#75be4e" stroke="#1a1a1a" stroke-width="2"/>
<ellipse cx="13.0" cy="6.5" rx="6" ry="3.6" fill="#75be4e" opacity="0"/>
<ellipse cx="13.0" cy="6.5" rx="5" ry="2.6" fill="#ffffff" opacity="0.30"/>
<ellipse cx="39.0" cy="8" rx="8.5" ry="6" fill="#75be4e" stroke="#1a1a1a" stroke-width="2"/>
<ellipse cx="39.0" cy="6.5" rx="6" ry="3.6" fill="#75be4e" opacity="0"/>
<ellipse cx="39.0" cy="6.5" rx="5" ry="2.6" fill="#ffffff" opacity="0.30"/>
<rect x="0" y="8" width="52" height="30" rx="5" fill="#75be4e" stroke="#1a1a1a" stroke-width="2"/>
<rect x="0" y="31" width="52" height="7" fill="#4d7d33"/>
<rect x="0" y="8" width="52" height="30" rx="5" fill="none" stroke="#1a1a1a" stroke-width="2"/>
<rect x="4" y="11" width="44" height="4" rx="2" fill="#ffffff" opacity="0.20"/>
</g>
<g transform="translate(24,80)">
<ellipse cx="13.0" cy="8" rx="8.5" ry="6" fill="#f9ca33" stroke="#1a1a1a" stroke-width="2"/>
<ellipse cx="13.0" cy="6.5" rx="6" ry="3.6" fill="#f9ca33" opacity="0"/>
<ellipse cx="13.0" cy="6.5" rx="5" ry="2.6" fill="#ffffff" opacity="0.30"/>
<ellipse cx="39.0" cy="8" rx="8.5" ry="6" fill="#f9ca33" stroke="#1a1a1a" stroke-width="2"/>
<ellipse cx="39.0" cy="6.5" rx="6" ry="3.6" fill="#f9ca33" opacity="0"/>
<ellipse cx="39.0" cy="6.5" rx="5" ry="2.6" fill="#ffffff" opacity="0.30"/>
<rect x="0" y="8" width="52" height="30" rx="5" fill="#f9ca33" stroke="#1a1a1a" stroke-width="2"/>
<rect x="0" y="31" width="52" height="7" fill="#a48521"/>
<rect x="0" y="8" width="52" height="30" rx="5" fill="none" stroke="#1a1a1a" stroke-width="2"/>
<rect x="4" y="11" width="44" height="4" rx="2" fill="#ffffff" opacity="0.20"/>
</g>
</svg>
