<svg xmlns="http://www.w3.org/2000/svg" width="180" height="165" viewBox="0 0 180 165" fill="none">
<g transform="translate(10,6) scale(1.0)">
<path d="M 10.0 84.0 L 48.0 84.0 L 48.0 48.0 L 10.0 48.0 L 10.0 12.0 L 48.0 12.0" fill="none" stroke="#fdd209" stroke-width="18.4" stroke-linecap="round" stroke-linejoin="round"/>
<path d="M 10.0 84.0 L 48.0 84.0 L 48.0 48.0 L 10.0 48.0 L 10.0 12.0 L 48.0 12.0" fill="none" stroke="#fde98a" stroke-width="6.8" stroke-linecap="round" stroke-linejoin="round" stroke-dasharray="11 11"/>
<rect x="44.0" y="-0.4" width="26.0" height="24.8" rx="7" fill="#fdd209"/>
<circle cx="60.4" cy="8.0" r="2.8" fill="#1a1a1a"/>
<rect x="73.6" y="10.5" width="8" height="3" rx="1.5" fill="#ef4665"/>
</g>
<g transform="translate(20,104) scale(0.9)">
<rect x="8.4" y="0" width="13.2" height="13" rx="2.5" fill="#1299d9"/>
<rect x="38.4" y="0" width="13.2" height="13" rx="2.5" fill="#1299d9"/>
<rect x="0" y="9" width="60" height="26" rx="3" fill="#1299d9"/>
<rect x="0" y="29" width="60" height="6" rx="3" fill="#0e77a9"/>
</g>
<g transform="translate(80,118) scale(0.85)">
<rect x="8.4" y="0" width="13.2" height="13" rx="2.5" fill="#8212da"/>
<rect x="0" y="9" width="30" height="26" rx="3" fill="#8212da"/>
<rect x="0" y="29" width="30" height="6" rx="3" fill="#650eaa"/>
</g>
<g transform="translate(14,134) scale(0.85)">
<rect x="8.4" y="0" width="13.2" height="13" rx="2.5" fill="#72bb4f"/>
<rect x="38.4" y="0" width="13.2" height="13" rx="2.5" fill="#72bb4f"/>
<rect x="68.4" y="0" width="13.2" height="13" rx="2.5" fill="#72bb4f"/>
<rect x="0" y="9" width="90" height="26" rx="3" fill="#72bb4f"/>
<rect x="0" y="29" width="90" height="6" rx="3" fill="#58913d"/>
</g>
</svg>
