<svg xmlns="http://www.w3.org/2000/svg" width="165" height="155" viewBox="0 0 165 155" fill="none">
<g transform="translate(24,8) scale(0.85)">
<rect x="8.4" y="0" width="13.2" height="13" rx="2.5" fill="#a6abb1"/>
<rect x="38.4" y="0" width="13.2" height="13" rx="2.5" fill="#a6abb1"/>
<rect x="0" y="9" width="60" height="26" rx="3" fill="#a6abb1"/>
<rect x="0" y="29" width="60" height="6" rx="3" fill="#81858a"/>
</g>
<g transform="translate(84,30) scale(0.85)">
<rect x="8.4" y="0" width="13.2" height="13" rx="2.5" fill="#f19640"/>
<rect x="0" y="9" width="30" height="26" rx="3" fill="#f19640"/>
<rect x="0" y="29" width="30" height="6" rx="3" fill="#bb7531"/>
</g>
<g transform="translate(40,58) scale(0.9)">
<rect x="8.4" y="0" width="13.2" height="13" rx="2.5" fill="#ef4665"/>
<rect x="38.4" y="0" width="13.2" height="13" rx="2.5" fill="#ef4665"/>
<rect x="0" y="9" width="60" height="26" rx="3" fill="#ef4665"/>
<rect x="0" y="29" width="60" height="6" rx="3" fill="#ba364e"/>
</g>
<g transform="translate(90,88) scale(0.85)">
<rect x="8.4" y="0" width="13.2" height="13" rx="2.5" fill="#fbc618"/>
<rect x="38.4" y="0" width="13.2" height="13" rx="2.5" fill="#fbc618"/>
<rect x="0" y="9" width="60" height="26" rx="3" fill="#fbc618"/>
<rect x="0" y="29" width="60" height="6" rx="3" fill="#c39a12"/>
</g>
<g transform="translate(112,106) scale(1.0)">
<path d="M 3 0 H 41 Q 44 0 44 3 V 19.799999999999997 Q 44 44 19.799999999999997 44 H 3 Q 0 44 0 41 V 3 Q 0 0 3 0 Z" fill="#fbc618"/>
<path d="M 0 38 H 44 V 41 Q 44 44 19.799999999999997 44 H 3 Q 0 44 0 41 Z" fill="#c89e13" opacity="0.85"/>
</g>
</svg>
