<svg xmlns="http://www.w3.org/2000/svg" width="170" height="150" viewBox="0 0 170 150" fill="none">
<g transform="translate(8,4)">
<ellipse cx="13.0" cy="8" rx="8.5" ry="6" fill="#8312dc" stroke="#1a1a1a" stroke-width="2"/>
<ellipse cx="13.0" cy="6.5" rx="6" ry="3.6" fill="#8312dc" opacity="0"/>
<ellipse cx="13.0" cy="6.5" rx="5" ry="2.6" fill="#ffffff" opacity="0.30"/>
<ellipse cx="39.0" cy="8" rx="8.5" ry="6" fill="#8312dc" stroke="#1a1a1a" stroke-width="2"/>
<ellipse cx="39.0" cy="6.5" rx="6" ry="3.6" fill="#8312dc" opacity="0"/>
<ellipse cx="39.0" cy="6.5" rx="5" ry="2.6" fill="#ffffff" opacity="0.30"/>
<rect x="0" y="8" width="52" height="30" rx="5" fill="#8312dc" stroke="#1a1a1a" stroke-width="2"/>
<rect x="0" y="31" width="52" height="7" fill="#560b91"/>
<rect x="0" y="8" width="52" height="30" rx="5" fill="none" stroke="#1a1a1a" stroke-width="2"/>
<rect x="4" y="11" width="44" height="4" rx="2" fill="#ffffff" opacity="0.20"/>
</g>
<g transform="translate(60,30)">
<ellipse cx="13.0" cy="8" rx="8.5" ry="6" fill="#149ada" stroke="#1a1a1a" stroke-width="2"/>
<ellipse cx="13.0" cy="6.5" rx="6" ry="3.6" fill="#149ada" opacity="0"/>
<ellipse cx="13.0" cy="6.5" rx="5" ry="2.6" fill="#ffffff" opacity="0.30"/>
<rect x="0" y="8" width="26" height="30" rx="5" fill="#149ada" stroke="#1a1a1a" stroke-width="2"/>
<rect x="0" y="31" width="26" height="7" fill="#0d658f"/>
<rect x="0" y="8" width="26" height="30" rx="5" fill="none" stroke="#1a1a1a" stroke-width="2"/>
<rect x="4" y="11" width="18" height="4" rx="2" fill="#ffffff" opacity="0.20"/>
</g>
<g transform="translate(14,44)">
<ellipse cx="13.0" cy="8" rx="8.5" ry="6" fill="#f9ca33" stroke="#1a1a1a" stroke-width="2"/>
<ellipse cx="13.0" cy="6.5" rx="6" ry="3.6" fill="#f9ca33" opacity="0"/>
<ellipse cx="13.0" cy="6.5" rx="5" ry="2.6" fill="#ffffff" opacity="0.30"/>
<ellipse cx="39.0" cy="8" rx="8.5" ry="6" fill="#f9ca33" stroke="#1a1a1a" stroke-width="2"/>
<ellipse cx="39.0" cy="6.5" rx="6" ry="3.6" fill="#f9ca33" opacity="0"/>
<ellipse cx="39.0" cy="6.5" rx="5" ry="2.6" fill="#ffffff" opacity="0.30"/>
<ellipse cx="65.0" cy="8" rx="8.5" ry="6" fill="#f9ca33" stroke="#1a1a1a" stroke-width="2"/>
<ellipse cx="65.0" cy="6.5" rx="6" ry="3.6" fill="#f9ca33" opacity="0"/>
<ellipse cx="65.0" cy="6.5" rx="5" ry="2.6" fill="#ffffff" opacity="0.30"/>
<rect x="0" y="8" width="78" height="30" rx="5" fill="#f9ca33" stroke="#1a1a1a" stroke-width="2"/>
<rect x="0" y="31" width="78" height="7" fill="#a48521"/>
<rect x="0" y="8" width="78" height="30" rx="5" fill="none" stroke="#1a1a1a" stroke-width="2"/>
<rect x="4" y="11" width="70" height="4" rx="2" fill="#ffffff" opacity="0.20"/>
</g>
<g transform="translate(30,78)">
<path d="M 8 48 L 24 48 L 24 32 L 40 32 L 40 16 L 56 16" fill="none" stroke="#0d6894" stroke-width="17" stroke-linecap="round" stroke-linejoin="round"/>
<path d="M 8 48 L 24 48 L 24 32 L 40 32 L 40 16 L 56 16" fill="none" stroke="#149ada" stroke-width="13" stroke-linecap="round" stroke-linejoin="round"/>
<circle cx="56" cy="16" r="11" fill="#149ada" stroke="#1a1a1a" stroke-width="2"/>
<circle cx="59" cy="13" r="2.6" fill="#1a1a1a"/>
<path d="M 65 18 l 8 -3 l 0 6 z" fill="#ec4567"/>
</g>
</svg>
