<svg xmlns="http://www.w3.org/2000/svg" width="240" height="248" viewBox="0 -8 240 248" fill="none" aria-hidden="true">
<style>
.bk{opacity:0}
@keyframes k0{0%,6.00%{opacity:0;transform:translateY(-46px)}9.56%{opacity:1;transform:translateY(3px)}10.76%{transform:translateY(0)}90.00%{opacity:1;transform:translateY(0)}96%,100%{opacity:0;transform:translateY(0)}}.b0{animation:k0 9.0s linear infinite}
@keyframes k1{0%,8.22%{opacity:0;transform:translateY(-46px)}11.78%{opacity:1;transform:translateY(3px)}12.98%{transform:translateY(0)}90.00%{opacity:1;transform:translateY(0)}96%,100%{opacity:0;transform:translateY(0)}}.b1{animation:k1 9.0s linear infinite}
@keyframes k2{0%,10.44%{opacity:0;transform:translateY(-46px)}14.00%{opacity:1;transform:translateY(3px)}15.20%{transform:translateY(0)}90.00%{opacity:1;transform:translateY(0)}96%,100%{opacity:0;transform:translateY(0)}}.b2{animation:k2 9.0s linear infinite}
@keyframes k3{0%,12.67%{opacity:0;transform:translateY(-46px)}16.22%{opacity:1;transform:translateY(3px)}17.42%{transform:translateY(0)}90.00%{opacity:1;transform:translateY(0)}96%,100%{opacity:0;transform:translateY(0)}}.b3{animation:k3 9.0s linear infinite}
@keyframes k4{0%,14.89%{opacity:0;transform:translateY(-46px)}18.44%{opacity:1;transform:translateY(3px)}19.64%{transform:translateY(0)}90.00%{opacity:1;transform:translateY(0)}96%,100%{opacity:0;transform:translateY(0)}}.b4{animation:k4 9.0s linear infinite}
@keyframes k5{0%,17.11%{opacity:0;transform:translateY(-46px)}20.67%{opacity:1;transform:translateY(3px)}21.87%{transform:translateY(0)}90.00%{opacity:1;transform:translateY(0)}96%,100%{opacity:0;transform:translateY(0)}}.b5{animation:k5 9.0s linear infinite}
@keyframes k6{0%,19.33%{opacity:0;transform:translateY(-46px)}22.89%{opacity:1;transform:translateY(3px)}24.09%{transform:translateY(0)}90.00%{opacity:1;transform:translateY(0)}96%,100%{opacity:0;transform:translateY(0)}}.b6{animation:k6 9.0s linear infinite}
@keyframes k7{0%,21.56%{opacity:0;transform:translateY(-46px)}25.11%{opacity:1;transform:translateY(3px)}26.31%{transform:translateY(0)}90.00%{opacity:1;transform:translateY(0)}96%,100%{opacity:0;transform:translateY(0)}}.b7{animation:k7 9.0s linear infinite}
@keyframes k8{0%,23.78%{opacity:0;transform:translateY(-46px)}27.33%{opacity:1;transform:translateY(3px)}28.53%{transform:translateY(0)}90.00%{opacity:1;transform:translateY(0)}96%,100%{opacity:0;transform:translateY(0)}}.b8{animation:k8 9.0s linear infinite}
@keyframes k9{0%,26.00%{opacity:0;transform:translateY(-46px)}29.56%{opacity:1;transform:translateY(3px)}30.76%{transform:translateY(0)}90.00%{opacity:1;transform:translateY(0)}96%,100%{opacity:0;transform:translateY(0)}}.b9{animation:k9 9.0s linear infinite}
@keyframes k10{0%,28.22%{opacity:0;transform:translateY(-46px)}31.78%{opacity:1;transform:translateY(3px)}32.98%{transform:translateY(0)}90.00%{opacity:1;transform:translateY(0)}96%,100%{opacity:0;transform:translateY(0)}}.b10{animation:k10 9.0s linear infinite}
@keyframes k11{0%,30.44%{opacity:0;transform:translateY(-46px)}34.00%{opacity:1;transform:translateY(3px)}35.20%{transform:translateY(0)}90.00%{opacity:1;transform:translateY(0)}96%,100%{opacity:0;transform:translateY(0)}}.b11{animation:k11 9.0s linear infinite}
@keyframes k12{0%,32.67%{opacity:0;transform:translateY(-46px)}36.22%{opacity:1;transform:translateY(3px)}37.42%{transform:translateY(0)}90.00%{opacity:1;transform:translateY(0)}96%,100%{opacity:0;transform:translateY(0)}}.b12{animation:k12 9.0s linear infinite}
@keyframes k13{0%,34.89%{opacity:0;transform:translateY(-46px)}38.44%{opacity:1;transform:translateY(3px)}39.64%{transform:translateY(0)}90.00%{opacity:1;transform:translateY(0)}96%,100%{opacity:0;transform:translateY(0)}}.b13{animation:k13 9.0s linear infinite}
@keyframes k14{0%,37.11%{opacity:0;transform:translateY(-46px)}40.67%{opacity:1;transform:translateY(3px)}41.87%{transform:translateY(0)}90.00%{opacity:1;transform:translateY(0)}96%,100%{opacity:0;transform:translateY(0)}}.b14{animation:k14 9.0s linear infinite}
@keyframes k15{0%,39.33%{opacity:0;transform:translateY(-46px)}42.89%{opacity:1;transform:translateY(3px)}44.09%{transform:translateY(0)}90.00%{opacity:1;transform:translateY(0)}96%,100%{opacity:0;transform:translateY(0)}}.b15{animation:k15 9.0s linear infinite}
@keyframes k16{0%,41.56%{opacity:0;transform:translateY(-46px)}45.11%{opacity:1;transform:translateY(3px)}46.31%{transform:translateY(0)}90.00%{opacity:1;transform:translateY(0)}96%,100%{opacity:0;transform:translateY(0)}}.b16{animation:k16 9.0s linear infinite}
@keyframes k17{0%,43.78%{opacity:0;transform:translateY(-46px)}47.33%{opacity:1;transform:translateY(3px)}48.53%{transform:translateY(0)}90.00%{opacity:1;transform:translateY(0)}96%,100%{opacity:0;transform:translateY(0)}}.b17{animation:k17 9.0s linear infinite}
@keyframes k18{0%,46.00%{opacity:0;transform:translateY(-46px)}49.56%{opacity:1;transform:translateY(3px)}50.76%{transform:translateY(0)}90.00%{opacity:1;transform:translateY(0)}96%,100%{opacity:0;transform:translateY(0)}}.b18{animation:k18 9.0s linear infinite}
@keyframes k19{0%,48.22%{opacity:0;transform:translateY(-46px)}51.78%{opacity:1;transform:translateY(3px)}52.98%{transform:translateY(0)}90.00%{opacity:1;transform:translateY(0)}96%,100%{opacity:0;transform:translateY(0)}}.b19{animation:k19 9.0s linear infinite}
@keyframes k20{0%,50.44%{opacity:0;transform:translateY(-46px)}54.00%{opacity:1;transform:translateY(3px)}55.20%{transform:translateY(0)}90.00%{opacity:1;transform:translateY(0)}96%,100%{opacity:0;transform:translateY(0)}}.b20{animation:k20 9.0s linear infinite}
@keyframes k21{0%,52.67%{opacity:0;transform:translateY(-46px)}56.22%{opacity:1;transform:translateY(3px)}57.42%{transform:translateY(0)}90.00%{opacity:1;transform:translateY(0)}96%,100%{opacity:0;transform:translateY(0)}}.b21{animation:k21 9.0s linear infinite}
@keyframes k22{0%,54.89%{opacity:0;transform:translateY(-46px)}58.44%{opacity:1;transform:translateY(3px)}59.64%{transform:translateY(0)}90.00%{opacity:1;transform:translateY(0)}96%,100%{opacity:0;transform:translateY(0)}}.b22{animation:k22 9.0s linear infinite}
@keyframes k23{0%,57.11%{opacity:0;transform:translateY(-46px)}60.67%{opacity:1;transform:translateY(3px)}61.87%{transform:translateY(0)}90.00%{opacity:1;transform:translateY(0)}96%,100%{opacity:0;transform:translateY(0)}}.b23{animation:k23 9.0s linear infinite}
@keyframes k24{0%,59.33%{opacity:0;transform:translateY(-46px)}62.89%{opacity:1;transform:translateY(3px)}64.09%{transform:translateY(0)}90.00%{opacity:1;transform:translateY(0)}96%,100%{opacity:0;transform:translateY(0)}}.b24{animation:k24 9.0s linear infinite}
@media (prefers-reduced-motion: reduce){
  .bk{animation:none !important;opacity:1 !important;transform:none !important}
}
</style>
<g transform="translate(48,216)"><g class="bk b0"><rect x="7.0" y="-5" width="10.1" height="9" rx="2" fill="#fbc618"/><rect x="31.0" y="-5" width="10.1" height="9" rx="2" fill="#fbc618"/><rect x="55.0" y="-5" width="10.1" height="9" rx="2" fill="#fbc618"/><rect x="0.5" y="0" width="71" height="24" rx="2.5" fill="#fbc618"/><rect x="0.5" y="19" width="71" height="5" rx="2" fill="#c49a10"/></g></g>
<g transform="translate(120,216)"><g class="bk b1"><rect x="7.0" y="-5" width="10.1" height="9" rx="2" fill="#fbc618"/><rect x="31.0" y="-5" width="10.1" height="9" rx="2" fill="#fbc618"/><rect x="0.5" y="0" width="47" height="24" rx="2.5" fill="#fbc618"/><rect x="0.5" y="19" width="47" height="5" rx="2" fill="#c49a10"/></g></g>
<g transform="translate(48,192)"><g class="bk b2"><rect x="7.0" y="-5" width="10.1" height="9" rx="2" fill="#fbc618"/><rect x="31.0" y="-5" width="10.1" height="9" rx="2" fill="#fbc618"/><rect x="55.0" y="-5" width="10.1" height="9" rx="2" fill="#fbc618"/><rect x="79.0" y="-5" width="10.1" height="9" rx="2" fill="#fbc618"/><rect x="0.5" y="0" width="95" height="24" rx="2.5" fill="#fbc618"/><rect x="0.5" y="19" width="95" height="5" rx="2" fill="#c49a10"/></g></g>
<g transform="translate(144,192)"><g class="bk b3"><rect x="7.0" y="-5" width="10.1" height="9" rx="2" fill="#fbc618"/><rect x="0.5" y="0" width="23" height="24" rx="2.5" fill="#fbc618"/><rect x="0.5" y="19" width="23" height="5" rx="2" fill="#c49a10"/></g></g>
<g transform="translate(48,168)"><g class="bk b4"><rect x="7.0" y="-5" width="10.1" height="9" rx="2" fill="#fbc618"/><rect x="31.0" y="-5" width="10.1" height="9" rx="2" fill="#fbc618"/><rect x="55.0" y="-5" width="10.1" height="9" rx="2" fill="#fbc618"/><rect x="79.0" y="-5" width="10.1" height="9" rx="2" fill="#fbc618"/><rect x="0.5" y="0" width="95" height="24" rx="2.5" fill="#fbc618"/><rect x="0.5" y="19" width="95" height="5" rx="2" fill="#c49a10"/></g></g>
<g transform="translate(144,168)"><g class="bk b5"><rect x="7.0" y="-5" width="10.1" height="9" rx="2" fill="#fbc618"/><rect x="31.0" y="-5" width="10.1" height="9" rx="2" fill="#fbc618"/><rect x="55.0" y="-5" width="10.1" height="9" rx="2" fill="#fbc618"/><rect x="79.0" y="-5" width="10.1" height="9" rx="2" fill="#fbc618"/><rect x="0.5" y="0" width="95" height="24" rx="2.5" fill="#fbc618"/><rect x="0.5" y="19" width="95" height="5" rx="2" fill="#c49a10"/></g></g>
<g transform="translate(48,144)"><g class="bk b6"><rect x="7.0" y="-5" width="10.1" height="9" rx="2" fill="#fbc618"/><rect x="31.0" y="-5" width="10.1" height="9" rx="2" fill="#fbc618"/><rect x="0.5" y="0" width="47" height="24" rx="2.5" fill="#fbc618"/><rect x="0.5" y="19" width="47" height="5" rx="2" fill="#c49a10"/></g></g>
<g transform="translate(96,144)"><g class="bk b7"><rect x="7.0" y="-5" width="10.1" height="9" rx="2" fill="#fbc618"/><rect x="31.0" y="-5" width="10.1" height="9" rx="2" fill="#fbc618"/><rect x="55.0" y="-5" width="10.1" height="9" rx="2" fill="#fbc618"/><rect x="0.5" y="0" width="71" height="24" rx="2.5" fill="#fbc618"/><rect x="0.5" y="19" width="71" height="5" rx="2" fill="#c49a10"/></g></g>
<g transform="translate(168,144)"><g class="bk b8"><rect x="7.0" y="-5" width="10.1" height="9" rx="2" fill="#fbc618"/><rect x="31.0" y="-5" width="10.1" height="9" rx="2" fill="#fbc618"/><rect x="55.0" y="-5" width="10.1" height="9" rx="2" fill="#fbc618"/><rect x="0.5" y="0" width="71" height="24" rx="2.5" fill="#fbc618"/><rect x="0.5" y="19" width="71" height="5" rx="2" fill="#c49a10"/></g></g>
<g transform="translate(0,120)"><g class="bk b9"><rect x="7.0" y="-5" width="10.1" height="9" rx="2" fill="#1299d9"/><rect x="31.0" y="-5" width="10.1" height="9" rx="2" fill="#1299d9"/><rect x="55.0" y="-5" width="10.1" height="9" rx="2" fill="#1299d9"/><rect x="0.5" y="0" width="71" height="24" rx="2.5" fill="#1299d9"/><rect x="0.5" y="19" width="71" height="5" rx="2" fill="#0e77aa"/></g></g>
<g transform="translate(72,120)"><g class="bk b10"><rect x="7.0" y="-5" width="10.1" height="9" rx="2" fill="#1299d9"/><rect x="31.0" y="-5" width="10.1" height="9" rx="2" fill="#1299d9"/><rect x="0.5" y="0" width="47" height="24" rx="2.5" fill="#1299d9"/><rect x="0.5" y="19" width="47" height="5" rx="2" fill="#0e77aa"/></g></g>
<g transform="translate(120,120)"><g class="bk b11"><rect x="7.0" y="-5" width="10.1" height="9" rx="2" fill="#fbc618"/><rect x="31.0" y="-5" width="10.1" height="9" rx="2" fill="#fbc618"/><rect x="0.5" y="0" width="47" height="24" rx="2.5" fill="#fbc618"/><rect x="0.5" y="19" width="47" height="5" rx="2" fill="#c49a10"/></g></g>
<g transform="translate(168,120)"><g class="bk b12"><rect x="7.0" y="-5" width="10.1" height="9" rx="2" fill="#fbc618"/><rect x="31.0" y="-5" width="10.1" height="9" rx="2" fill="#fbc618"/><rect x="55.0" y="-5" width="10.1" height="9" rx="2" fill="#fbc618"/><rect x="0.5" y="0" width="71" height="24" rx="2.5" fill="#fbc618"/><rect x="0.5" y="19" width="71" height="5" rx="2" fill="#c49a10"/></g></g>
<g transform="translate(0,96)"><g class="bk b13"><rect x="7.0" y="-5" width="10.1" height="9" rx="2" fill="#1299d9"/><rect x="31.0" y="-5" width="10.1" height="9" rx="2" fill="#1299d9"/><rect x="0.5" y="0" width="47" height="24" rx="2.5" fill="#1299d9"/><rect x="0.5" y="19" width="47" height="5" rx="2" fill="#0e77aa"/></g></g>
<g transform="translate(48,96)"><g class="bk b14"><rect x="7.0" y="-5" width="10.1" height="9" rx="2" fill="#1299d9"/><rect x="31.0" y="-5" width="10.1" height="9" rx="2" fill="#1299d9"/><rect x="55.0" y="-5" width="10.1" height="9" rx="2" fill="#1299d9"/><rect x="0.5" y="0" width="71" height="24" rx="2.5" fill="#1299d9"/><rect x="0.5" y="19" width="71" height="5" rx="2" fill="#0e77aa"/></g></g>
<g transform="translate(120,96)"><g class="bk b15"><rect x="7.0" y="-5" width="10.1" height="9" rx="2" fill="#fbc618"/><rect x="31.0" y="-5" width="10.1" height="9" rx="2" fill="#fbc618"/><rect x="55.0" y="-5" width="10.1" height="9" rx="2" fill="#fbc618"/><rect x="0.5" y="0" width="71" height="24" rx="2.5" fill="#fbc618"/><rect x="0.5" y="19" width="71" height="5" rx="2" fill="#c49a10"/></g></g>
<g transform="translate(192,96)"><g class="bk b16"><rect x="7.0" y="-5" width="10.1" height="9" rx="2" fill="#fbc618"/><rect x="31.0" y="-5" width="10.1" height="9" rx="2" fill="#fbc618"/><rect x="0.5" y="0" width="47" height="24" rx="2.5" fill="#fbc618"/><rect x="0.5" y="19" width="47" height="5" rx="2" fill="#c49a10"/></g></g>
<g transform="translate(0,72)"><g class="bk b17"><rect x="7.0" y="-5" width="10.1" height="9" rx="2" fill="#1299d9"/><rect x="31.0" y="-5" width="10.1" height="9" rx="2" fill="#1299d9"/><rect x="55.0" y="-5" width="10.1" height="9" rx="2" fill="#1299d9"/><rect x="79.0" y="-5" width="10.1" height="9" rx="2" fill="#1299d9"/><rect x="0.5" y="0" width="95" height="24" rx="2.5" fill="#1299d9"/><rect x="0.5" y="19" width="95" height="5" rx="2" fill="#0e77aa"/></g></g>
<g transform="translate(96,72)"><g class="bk b18"><rect x="7.0" y="-5" width="10.1" height="9" rx="2" fill="#1299d9"/><rect x="31.0" y="-5" width="10.1" height="9" rx="2" fill="#1299d9"/><rect x="55.0" y="-5" width="10.1" height="9" rx="2" fill="#1299d9"/><rect x="79.0" y="-5" width="10.1" height="9" rx="2" fill="#1299d9"/><rect x="0.5" y="0" width="95" height="24" rx="2.5" fill="#1299d9"/><rect x="0.5" y="19" width="95" height="5" rx="2" fill="#0e77aa"/></g></g>
<g transform="translate(0,48)"><g class="bk b19"><rect x="7.0" y="-5" width="10.1" height="9" rx="2" fill="#1299d9"/><rect x="31.0" y="-5" width="10.1" height="9" rx="2" fill="#1299d9"/><rect x="55.0" y="-5" width="10.1" height="9" rx="2" fill="#1299d9"/><rect x="0.5" y="0" width="71" height="24" rx="2.5" fill="#1299d9"/><rect x="0.5" y="19" width="71" height="5" rx="2" fill="#0e77aa"/></g></g>
<g transform="translate(72,48)"><g class="bk b20"><rect x="7.0" y="-5" width="10.1" height="9" rx="2" fill="#1299d9"/><rect x="31.0" y="-5" width="10.1" height="9" rx="2" fill="#1299d9"/><rect x="55.0" y="-5" width="10.1" height="9" rx="2" fill="#1299d9"/><rect x="0.5" y="0" width="71" height="24" rx="2.5" fill="#1299d9"/><rect x="0.5" y="19" width="71" height="5" rx="2" fill="#0e77aa"/></g></g>
<g transform="translate(144,48)"><g class="bk b21"><rect x="7.0" y="-5" width="10.1" height="9" rx="2" fill="#1299d9"/><rect x="31.0" y="-5" width="10.1" height="9" rx="2" fill="#1299d9"/><rect x="0.5" y="0" width="47" height="24" rx="2.5" fill="#1299d9"/><rect x="0.5" y="19" width="47" height="5" rx="2" fill="#0e77aa"/></g></g>
<g transform="translate(72,24)"><g class="bk b22"><rect x="7.0" y="-5" width="10.1" height="9" rx="2" fill="#1299d9"/><rect x="31.0" y="-5" width="10.1" height="9" rx="2" fill="#1299d9"/><rect x="55.0" y="-5" width="10.1" height="9" rx="2" fill="#1299d9"/><rect x="79.0" y="-5" width="10.1" height="9" rx="2" fill="#1299d9"/><rect x="103.0" y="-5" width="10.1" height="9" rx="2" fill="#1299d9"/><rect x="0.5" y="0" width="119" height="24" rx="2.5" fill="#1299d9"/><rect x="0.5" y="19" width="119" height="5" rx="2" fill="#0e77aa"/></g></g>
<g transform="translate(72,0)"><g class="bk b23"><rect x="7.0" y="-5" width="10.1" height="9" rx="2" fill="#1299d9"/><rect x="31.0" y="-5" width="10.1" height="9" rx="2" fill="#1299d9"/><rect x="55.0" y="-5" width="10.1" height="9" rx="2" fill="#1299d9"/><rect x="0.5" y="0" width="71" height="24" rx="2.5" fill="#1299d9"/><rect x="0.5" y="19" width="71" height="5" rx="2" fill="#0e77aa"/></g></g>
<g transform="translate(144,0)"><g class="bk b24"><rect x="7.0" y="-5" width="10.1" height="9" rx="2" fill="#1299d9"/><rect x="31.0" y="-5" width="10.1" height="9" rx="2" fill="#1299d9"/><rect x="0.5" y="0" width="47" height="24" rx="2.5" fill="#1299d9"/><rect x="0.5" y="19" width="47" height="5" rx="2" fill="#0e77aa"/></g></g>
<g transform="translate(154.8,13.200000000000001)"><g class="bk b24"><circle r="5" fill="#ffffff"/></g></g>
<g transform="translate(63.599999999999994,228.0)"><g class="bk b0"><circle r="5" fill="#ffffff"/></g></g>
</svg>
